# xmcd
#
# Track frame offsets: 
#        150
#        36069
#        70039
#
# Disc length: 2054 seconds
#
# Revision: 1
# Processed by: cddbd v1.5.1PL0 Copyright (c) Steve Scherf et al.
# Submitted via: ExactAudioCopy v0.95a5
#
DISCID=1d080403
DTITLE=Blue Floyd - Blue Floyd. Richmond. VA. 2.7.00 CD3
DYEAR=2000
DGENRE=Rock
TTITLE0=Seamus
TTITLE1=Cymbaline
TTITLE2=Us and Them > Breathe (reprise)
EXTD=
EXTT0=
EXTT1=
EXTT2=
PLAYORDER=
